<svg xmlns="http://www.w3.org/2000/svg" xmlns:xlink="http://www.w3.org/1999/xlink" version="1.1" style="enable-background:new 0 0 420.8 420.8;" xml:space="preserve" width="420.8" height="420.8"><rect id="backgroundrect" width="100%" height="100%" x="0" y="0" fill="none" stroke="none"/>
















<g class="currentLayer" style=""><title>Layer 1</title><g id="svg_1" class="selected" fill="#ffffff" fill-opacity="1">
	<g id="svg_2" fill="#ffffff" fill-opacity="1">
		<g id="svg_3" fill="#ffffff" fill-opacity="1">
			<path d="M407.57519381046296,96.4 c-8.4,-8.8 -20,-14 -33.2,-14 h-66.4 v-0.8 c0,-10 -4,-19.6 -10.8,-26 c-6.8,-6.8 -16,-10.8 -26,-10.8 h-120 c-10.4,0 -19.6,4 -26.4,10.8 c-6.8,6.8 -10.8,16 -10.8,26 v0.8 h-66 c-13.2,0 -24.8,5.2 -33.2,14 c-8.4,8.4 -14,20.4 -14,33.2 v199.2 C0.7751938104629517,342 5.975193810462952,353.6 14.775193810462952,362 c8.4,8.4 20.4,14 33.2,14 h326.4 c13.2,0 24.8,-5.2 33.2,-14 c8.4,-8.4 14,-20.4 14,-33.2 V129.6 C421.57519381046296,116.4 416.375193810463,104.8 407.57519381046296,96.4 zM400.77519381046295,328.8 h-0.4 c0,7.2 -2.8,13.6 -7.6,18.4 s-11.2,7.6 -18.4,7.6 H47.975193810462955 c-7.2,0 -13.6,-2.8 -18.4,-7.6 c-4.8,-4.8 -7.6,-11.2 -7.6,-18.4 V129.6 c0,-7.2 2.8,-13.6 7.6,-18.4 s11.2,-7.6 18.4,-7.6 h77.2 c6,0 10.8,-4.8 10.8,-10.8 V81.2 c0,-4.4 1.6,-8.4 4.4,-11.2 s6.8,-4.4 11.2,-4.4 h119.6 c4.4,0 8.4,1.6 11.2,4.4 c2.8,2.8 4.4,6.8 4.4,11.2 v11.6 c0,6 4.8,10.8 10.8,10.8 H374.77519381046295 c7.2,0 13.6,2.8 18.4,7.6 s7.6,11.2 7.6,18.4 V328.8 z" id="svg_4" fill="#ffffff" fill-opacity="1"/>
			<path d="M211.17519381046296,130.8 c-27.2,0 -52,11.2 -69.6,28.8 c-18,18 -28.8,42.4 -28.8,69.6 s11.2,52 28.8,69.6 c18,18 42.4,28.8 69.6,28.8 s52,-11.2 69.6,-28.8 c18,-18 28.8,-42.4 28.8,-69.6 s-11.2,-52 -28.8,-69.6 C263.17519381046293,142 238.37519381046295,130.8 211.17519381046296,130.8 zM265.57519381046296,284 c-14,13.6 -33.2,22.4 -54.4,22.4 S170.77519381046295,297.6 156.77519381046295,284 c-14,-14 -22.4,-33.2 -22.4,-54.4 c0,-21.2 8.8,-40.4 22.4,-54.4 c14,-14 33.2,-22.4 54.4,-22.4 s40.4,8.8 54.4,22.4 c14,14 22.4,33.2 22.4,54.4 C288.375193810463,250.8 279.57519381046296,270 265.57519381046296,284 z" id="svg_5" fill="#ffffff" fill-opacity="1"/>
			<circle cx="353.5751816034317" cy="150" r="19.600000381469727" id="svg_6" fill="#ffffff" fill-opacity="1"/>
		</g>
	</g>
</g><g id="svg_7">
</g><g id="svg_8">
</g><g id="svg_9">
</g><g id="svg_10">
</g><g id="svg_11">
</g><g id="svg_12">
</g><g id="svg_13">
</g><g id="svg_14">
</g><g id="svg_15">
</g><g id="svg_16">
</g><g id="svg_17">
</g><g id="svg_18">
</g><g id="svg_19">
</g><g id="svg_20">
</g><g id="svg_21">
</g></g></svg>